<?xml version="1.0" encoding="utf-8"?>
<!-- Generator: Adobe Illustrator 22.1.0, SVG Export Plug-In . SVG Version: 6.00 Build 0)  -->
<svg version="1.1" id="Layer_1" xmlns="http://www.w3.org/2000/svg" xmlns:xlink="http://www.w3.org/1999/xlink" x="0px" y="0px"
	 viewBox="0 0 451 127.8" style="enable-background:new 0 0 451 127.8;" xml:space="preserve">
<style type="text/css">
	.st0{enable-background:new    ;}
	.st1{fill:#3897BB;}
	.st2{fill:#1E699D;}
	.st3{fill:none;stroke:#1E699D;stroke-width:0.5102;stroke-miterlimit:10;}
	.st4{fill:#1F6A9D;}
	.st5{fill:url(#SVGID_1_);}
	.st6{fill:url(#SVGID_2_);}
	.st7{fill:url(#SVGID_3_);}
</style>
<g>
	<g>
		<g class="st0">
			<path class="st1" d="M182,102.3c-0.5,0.8-0.8,1.3-0.8,1.5c0,0.2,0.1,0.4,0.3,0.5c0,0-0.2,0.2-0.5,0.4c-0.3,0.2-0.8,0.3-1.4,0.3
				c-0.6,0-0.9-0.2-0.9-0.5c0-0.6,1-2.4,3.1-5.5c2.1-3.1,3.5-5.2,4.1-6.4c1.4-2.6,2.2-4.6,2.2-6.1c0-0.6-0.1-1.1-0.3-1.7
				c-0.4-0.8-1.2-1.1-2.6-1.1c-2.5,0-5.2,1.2-8,3.5c-2.2,1.8-3.8,3.6-5,5.5c-1.1,1.8-1.6,3.4-1.6,4.8c0,2,0.9,3.1,2.8,3.1
				c0.1,0,0.2,0,0.3,0c2.5,0,4.4-0.9,5.7-2.6c0.5-0.7,0.8-1.3,0.8-1.8s-0.1-0.8-0.3-0.9c0,0,0-0.1,0-0.1s0.1-0.1,0.2-0.1
				c0.6,0,0.8,0.4,0.8,1.1c0,0.4-0.2,1-0.6,1.8c-0.4,0.8-1.2,1.5-2.3,2.2c-1.1,0.7-2.4,1-3.8,1c-1.4,0-2.5-0.4-3.4-1.2
				c-0.8-0.8-1.2-1.9-1.2-3.3c0-3.3,2.3-6.8,6.8-10.4c1.1-0.9,2.6-1.7,4.5-2.3c1.8-0.6,3.5-0.9,5-0.9c1.5,0,2.5,0.3,3.2,0.8
				c0.6,0.6,0.9,1.3,0.9,2.3c0,2.4-1.5,5.8-4.4,10.3c0.7-0.8,1.7-1.9,3.2-3.1c5.3-4.4,9.8-7.3,13.6-8.7c0.2-0.1,0.4-0.1,0.6-0.1
				c0.8,0,1.3,0.5,1.5,1.4c0.1,0.4-0.4,1.1-1.5,2.3c-2.6,2.7-4.9,5.7-6.7,8.9c-1.8,3.2-2.8,5.5-2.8,6.9c0,0.3,0.1,0.6,0.2,0.7
				c0.1,0.1,0.3,0.2,0.6,0.1c0.3-0.1,0.9-0.3,1.7-0.7s1.5-0.6,1.7-0.7c0.1,0,0.2,0.1,0.2,0.2c0,0.3-0.6,0.8-1.7,1.3
				c-1.1,0.6-1.9,0.9-2.5,0.9c-0.6,0-0.9-0.1-1-0.3c-0.4-0.5-0.6-1.2-0.6-2c0-1.8,1-4.4,2.9-7.8c1.2-2.1,3.2-5,5.8-8.6
				c-2.8,0.3-6.5,2.5-10.9,6.7C186,97,183.5,99.9,182,102.3z"/>
			<path class="st1" d="M207.4,96c0,0.7-0.7,2-2.1,3.7c-1.7,2.1-3.1,3.1-4.3,3.1h-0.5c-0.6,0-1-0.3-1.3-0.9
				c-0.3-0.4-0.4-0.8-0.4-1.3c0-1.3,0.9-3.1,2.8-5.3c1.9-2.3,3.3-3.4,4.5-3.4c1.1,0,1.6,0.6,1.6,1.7c0,0.3-0.1,0.7-0.2,1.1
				c0,0.1,0.2,0.1,0.6,0.1c0.4,0,1-0.2,1.7-0.6c0,0.4-0.9,0.9-2.5,1.6C207.4,95.8,207.4,95.9,207.4,96z M205.3,94.3
				c-0.7,0-1.7,0.8-3.1,2.5c-1.3,1.7-2,2.9-2,3.7s0.3,1.2,0.8,1.2c0.9,0,2.1-0.8,3.5-2.5c1.4-1.7,2.1-2.8,2.1-3.6
				C206.3,95.6,205.8,95.1,205.3,94.3z"/>
			<path class="st1" d="M221.3,92.7c0-0.1,0.1-0.2,0.2-0.2c0.4,0,0.7,0.2,0.9,0.7c0.3,0.4,0.4,1.1,0.4,2.1c0,1.5-0.7,3.1-2,4.7
				c-1.3,1.6-2.8,2.4-4.3,2.4c-0.7,0-1.3-0.4-1.8-1.1c-0.5-0.7-0.7-1.5-0.7-2.2s0.2-1.7,0.5-2.8c-0.6,0.6-1.5,1.7-2.7,3.2
				c-1.2,1.5-2,2.6-2.4,3.3c-0.2,0-0.5-0.1-0.9-0.3c-0.4-0.2-0.6-0.5-0.6-0.7c0-0.5,0.6-2.2,1.9-5c1.3-2.8,2.3-4.3,2.9-4.3
				c0.2,0,0.4,0.1,0.6,0.3c0.2,0.2,0.3,0.4,0.3,0.5c0,0.1-0.6,1.2-1.7,3.3c-1.2,2.1-1.7,3.3-1.7,3.7c2-2.4,3.1-3.7,3.2-3.9
				c2.1-2.4,3.4-3.6,4-3.6c0.2,0,0.5,0.1,0.7,0.3c0.2,0.2,0.3,0.4,0.3,0.5c0,0.2-0.3,0.6-0.9,1.4c-0.6,0.8-1.1,1.6-1.5,2.3
				c-0.4,0.8-0.6,1.5-0.6,2.3c0,1.3,0.4,2,1.3,2h0.4c1.1,0,2.2-0.9,3.1-2.6c0.9-1.7,1.4-3.1,1.4-4.2c0-0.8-0.1-1.5-0.4-2
				C221.3,92.8,221.3,92.8,221.3,92.7z"/>
			<path class="st1" d="M235.9,102.2c-0.6,0.4-1.4,0.5-2.3,0.5c-0.9,0-1.6-0.3-2.1-0.9c-0.5-0.6-0.9-1.5-1.2-2.8
				c-0.4,0.4-0.6,0.6-0.8,0.6c-0.1,0-0.2-0.1-0.2-0.2c0-0.1,0.1-0.3,0.2-0.4c0.7-0.9,1.9-2.1,3.6-3.7l4-3.7c1.1-1.1,1.8-1.6,2-1.6
				c0.7,0,1,0.3,1,0.8c0,0.3-0.1,0.5-0.3,0.7c-0.2,0.2-0.3,0.4-0.4,0.6c-0.1,0.1-0.2,0.3-0.3,0.4c-0.4,0.7-0.8,2-1.2,4.1
				c-0.4,2.1-0.7,3.5-0.9,4.3c1.8,0,3.6-1.2,5.4-3.4c0.2-0.2,0.4-0.3,0.5-0.3c0.1,0,0.2,0.1,0.2,0.2c0,0.1-0.1,0.3-0.3,0.6
				c-1.2,1.4-2.4,2.4-3.4,3c-0.6,0.3-1.5,0.6-2.5,0.8L235.9,102.2z M231.7,98.7c0,0.7,0.2,1.3,0.7,1.8c0.5,0.5,1,0.7,1.6,0.7
				c0.6,0,1-0.1,1.4-0.3c0.4-0.2,0.8-1.2,1.3-2.9c0.4-1.7,0.7-3.2,0.7-4.5l0.1-1.1c-1.2,0.9-2.4,2-3.7,3.4c-1.3,1.4-2,2.3-2,2.7
				C231.7,98.5,231.7,98.6,231.7,98.7z"/>
			<path class="st1" d="M243.6,103.1c-0.2,0-0.4,0-0.6-0.1c-1.4-0.4-2-1.1-2-2.3c0-1.5,0.9-3.2,2.8-5.1c1.9-1.9,3.5-2.9,5-2.9
				c0.5,0,0.9,0.1,1.2,0.4c0.3,0.3,0.5,0.6,0.5,1c0,1.2-0.9,2.3-2.7,3.4c-1.8,1.1-3.2,1.6-4.4,1.6c-0.2,0-0.3,0-0.4-0.1
				c-0.3,0.6-0.5,1.2-0.5,1.8c0,1.1,0.5,1.7,1.6,1.7c1,0,2.4-0.7,4.1-2.1c1.3-1,2.4-2.1,3.3-3.3c0.2-0.3,0.4-0.4,0.5-0.4
				c0.1,0,0.2,0.1,0.2,0.2c0,0.1-0.1,0.3-0.3,0.5c-1.1,1.5-2.5,2.8-4.1,4C246.1,102.5,244.7,103.1,243.6,103.1z M249.6,94
				c0-0.3-0.3-0.4-0.8-0.4c-0.5,0-1.3,0.4-2.3,1.2c-1.3,1.1-2.4,2.3-3.1,3.5c0.1,0,0.3,0.1,0.4,0.1c0.8,0,1.9-0.4,3.2-1.3
				c1.3-0.9,2.2-1.8,2.5-2.8C249.6,94.1,249.6,94.1,249.6,94z"/>
			<path class="st1" d="M251.9,101.1c0,0.6,0.3,1,1,1c0.7,0,1.6-0.4,2.7-1.1c1.1-0.7,2.2-1.7,3.2-3c0.3-0.3,0.5-0.5,0.6-0.5
				c0.1,0,0.2,0.1,0.2,0.2s-0.4,0.7-1.3,1.7c-2.1,2.3-3.9,3.5-5.3,3.5c-0.7,0-1.3-0.2-1.8-0.5c-0.5-0.3-0.7-0.8-0.7-1.5
				c0-0.7,0.2-1.5,0.5-2.4c0.6-1.4,1.6-3.2,3-5.4c2.5-4,4.2-6,5.3-6c0.2,0,0.4,0.1,0.7,0.2c0.2,0.2,0.3,0.3,0.4,0.5
				c-0.5,0.7-1.4,1.9-2.8,3.8c-1.4,1.9-2.3,3.2-2.9,4c-0.5,0.8-0.9,1.4-1.2,1.8c-0.3,0.4-0.5,0.7-0.6,0.9c-0.1,0.2-0.3,0.5-0.4,0.9
				C252.1,99.8,251.9,100.5,251.9,101.1z"/>
			<path class="st1" d="M260.1,101.1c0,0.6,0.3,1,1,1c0.7,0,1.6-0.4,2.7-1.1c1.1-0.7,2.2-1.7,3.2-3c0.3-0.3,0.5-0.5,0.6-0.5
				c0.1,0,0.2,0.1,0.2,0.2s-0.4,0.7-1.3,1.7c-2.1,2.3-3.9,3.5-5.3,3.5c-0.7,0-1.3-0.2-1.8-0.5c-0.5-0.3-0.7-0.8-0.7-1.5
				c0-0.7,0.2-1.5,0.5-2.4c0.6-1.4,1.6-3.2,3-5.4c2.5-4,4.2-6,5.3-6c0.2,0,0.4,0.1,0.7,0.2c0.2,0.2,0.3,0.3,0.4,0.5
				c-0.5,0.7-1.4,1.9-2.8,3.8c-1.4,1.9-2.3,3.2-2.9,4c-0.5,0.8-0.9,1.4-1.2,1.8c-0.3,0.4-0.5,0.7-0.6,0.9c-0.1,0.2-0.3,0.5-0.4,0.9
				C260.3,99.8,260.1,100.5,260.1,101.1z"/>
			<path class="st1" d="M282.2,92.5l4.6-0.1c0.1,0,0.1,0.1,0.1,0.1c0,0.2-1.3,0.5-4,0.8c-2.6,0.3-4.1,0.5-4.3,0.6
				c-0.4,0.4-1.1,1.4-2.2,3.2c-1.1,1.8-1.6,3.1-1.6,3.9c0,0.8,0.5,1.2,1.6,1.2c0.5,0,1.2-0.2,2-0.5c0.8-0.3,1.5-0.6,1.9-0.9
				c1.2-0.7,2.5-1.8,3.8-3.3c0.3-0.3,0.5-0.4,0.6-0.4c0.1,0,0.1,0.1,0.1,0.2c0,0.1-0.2,0.4-0.5,0.8c-1.1,1.4-2.3,2.4-3.7,3.3
				c-1.7,1-3.2,1.5-4.7,1.5c-0.7,0-1.2-0.1-1.6-0.4c-0.4-0.3-0.6-0.9-0.6-1.7c0-0.9,0.4-2.1,1.1-3.6c0.8-1.5,1.3-2.6,1.7-3.4
				c-0.3,0.1-0.6,0.1-0.8,0.1c-0.6,0-0.9-0.2-0.9-0.7c0-0.4,0.3-0.6,0.8-0.8c0.1,0,0.2,0,0.3,0h1.8c0.4-0.5,0.8-1,1.3-1.7
				c0.6-0.8,1-1.1,1.2-1.1c0.2,0,0.5,0.1,0.8,0.3c0.3,0.2,0.5,0.4,0.5,0.6c0,0.2-0.5,0.9-1.5,2.1C280.6,92.5,281.3,92.5,282.2,92.5z
				"/>
			<path class="st1" d="M291.4,102.6c-1.2,0-1.9-0.7-1.9-2.2c0-0.8,0.3-1.7,0.9-2.7c0.6-1,1.3-2.2,2.1-3.5c-2.7,1.4-5.2,3.4-7.4,6
				c-1.2,1.8-1.9,2.8-2.2,2.8c-0.6,0-0.9-0.2-0.9-0.5c0-0.2,0.1-0.5,0.4-1c2.1-3.7,3.6-6.3,4.7-8c2.5-4,4.3-6.2,5.3-6.6
				c0,0,0.1,0,0.1,0c0.3,0,0.5,0.2,0.6,0.7c-0.1,0.4-1.2,2.1-3.3,4.8c-2.2,2.8-3.5,4.7-3.8,5.5c0.8-0.6,2.1-1.5,4.1-2.9
				c2.1-1.5,3.5-2.2,4.2-2.2c0.7,0,1,0.3,1,0.8c0,0.1,0,0.1,0,0.2c0,0-0.7,1-2.2,3c-1.5,2-2.2,3.4-2.2,4.3c0,0.5,0.2,0.7,0.5,0.7
				c1.1,0,2.9-1.4,5.1-4.1c0.2-0.2,0.3-0.3,0.4-0.3s0.1,0.1,0.1,0.2c0,0.4-1,1.6-3.1,3.4C292.7,102,291.8,102.6,291.4,102.6z"/>
			<path class="st1" d="M297.9,103.1c-0.2,0-0.4,0-0.6-0.1c-1.4-0.4-2-1.1-2-2.3c0-1.5,0.9-3.2,2.8-5.1c1.9-1.9,3.5-2.9,5-2.9
				c0.5,0,0.9,0.1,1.2,0.4c0.3,0.3,0.5,0.6,0.5,1c0,1.2-0.9,2.3-2.7,3.4c-1.8,1.1-3.2,1.6-4.4,1.6c-0.2,0-0.3,0-0.4-0.1
				c-0.3,0.6-0.5,1.2-0.5,1.8c0,1.1,0.5,1.7,1.6,1.7c1,0,2.4-0.7,4.1-2.1c1.3-1,2.4-2.1,3.3-3.3c0.2-0.3,0.4-0.4,0.5-0.4
				c0.1,0,0.2,0.1,0.2,0.2c0,0.1-0.1,0.3-0.3,0.5c-1.1,1.5-2.5,2.8-4.1,4C300.4,102.5,299,103.1,297.9,103.1z M303.9,94
				c0-0.3-0.3-0.4-0.8-0.4c-0.5,0-1.3,0.4-2.3,1.2c-1.3,1.1-2.4,2.3-3.1,3.5c0.1,0,0.3,0.1,0.4,0.1c0.8,0,1.9-0.4,3.2-1.3
				c1.3-0.9,2.2-1.8,2.5-2.8C303.9,94.1,303.9,94.1,303.9,94z"/>
			<path class="st1" d="M317.6,102.2c-0.6,0.4-1.4,0.5-2.3,0.5c-0.9,0-1.6-0.3-2.1-0.9c-0.5-0.6-0.9-1.5-1.2-2.8
				c-0.4,0.4-0.6,0.6-0.8,0.6c-0.1,0-0.2-0.1-0.2-0.2c0-0.1,0.1-0.3,0.2-0.4c0.7-0.9,1.9-2.1,3.6-3.7l4-3.7c1.1-1.1,1.8-1.6,2-1.6
				c0.7,0,1,0.3,1,0.8c0,0.3-0.1,0.5-0.3,0.7c-0.2,0.2-0.3,0.4-0.4,0.6c-0.1,0.1-0.2,0.3-0.3,0.4c-0.4,0.7-0.8,2-1.2,4.1
				c-0.4,2.1-0.7,3.5-0.9,4.3c1.8,0,3.6-1.2,5.4-3.4c0.2-0.2,0.4-0.3,0.5-0.3c0.1,0,0.2,0.1,0.2,0.2c0,0.1-0.1,0.3-0.3,0.6
				c-1.2,1.4-2.4,2.4-3.4,3c-0.6,0.3-1.5,0.6-2.5,0.8L317.6,102.2z M313.3,98.7c0,0.7,0.2,1.3,0.7,1.8c0.5,0.5,1,0.7,1.6,0.7
				c0.6,0,1-0.1,1.4-0.3c0.4-0.2,0.8-1.2,1.3-2.9c0.4-1.7,0.7-3.2,0.7-4.5l0.1-1.1c-1.2,0.9-2.4,2-3.7,3.4c-1.3,1.4-2,2.3-2,2.7
				C313.3,98.5,313.3,98.6,313.3,98.7z"/>
			<path class="st1" d="M338.8,102.3c-1.4,0-2.2-0.7-2.2-2c0-0.8,0.3-1.8,1-3.1c0.7-1.3,1.4-2.4,2.1-3.3c-1.3,0.6-2.8,1.8-4.5,3.4
				c-1.7,1.7-2.9,3.4-3.6,5.2c-0.1,0.2-0.3,0.3-0.5,0.3c-0.5,0-0.8-0.3-0.8-0.9c0.2-1.2,0.7-2.5,1.4-4c0.2-0.5,0.9-1.9,2.1-4.3
				c-1.7,1.1-3.1,2.2-4.2,3.5c-1.2,1.2-2.2,2.5-3.2,3.7c-1,1.2-1.5,1.9-1.7,1.9c-0.3,0-0.5-0.1-0.7-0.4s-0.3-0.5-0.3-0.8
				c0-0.4,0.5-1.8,1.7-4.2l-1.9,2c-0.5,0.5-0.8,0.7-0.9,0.7c-0.1,0-0.2-0.1-0.2-0.2c0-0.1,0.1-0.3,0.3-0.5c0.8-0.8,1.5-1.6,2.1-2.3
				c0.6-0.8,1.6-2.2,3-4.2c0.2-0.3,0.6-0.5,1-0.5c0.4,0,0.6,0.2,0.6,0.6c0,0.1-0.6,1.2-1.7,3.1c-1.1,1.9-1.7,3.1-1.9,3.6
				c0.9-1,2.2-2.2,3.9-3.8c2.6-2.4,4.3-3.6,5.1-3.6c0.3,0,0.5,0.1,0.7,0.2c0.2,0.1,0.3,0.3,0.3,0.5c0,0.2-0.4,1-1.2,2.4
				c-0.8,1.5-1.2,2.3-1.3,2.6c2.3-2,3.5-3,3.5-3c2-1.5,3.4-2.3,4.3-2.3c0.3,0,0.5,0.1,0.7,0.2c0.2,0.2,0.3,0.3,0.3,0.6
				c0,0-0.7,0.9-2.1,2.7c-1.4,1.7-2.1,3.2-2.3,4.3c0,0.4,0,0.7,0.2,0.9c0.2,0.2,0.5,0.3,1,0.3c0.5,0,1.2-0.3,2.2-1
				c1-0.7,1.9-1.6,2.9-2.8c0.4-0.4,0.6-0.6,0.8-0.6c0.1,0,0.2,0.1,0.2,0.2c0,0.1-0.1,0.3-0.3,0.5c-1,1.2-2.2,2.3-3.3,3.2
				C340.4,101.9,339.5,102.3,338.8,102.3z"/>
			<path class="st1" d="M354.8,93.2l0.4-0.1c0.2,0,0.5,0.1,0.7,0.3c0.2,0.2,0.3,0.3,0.3,0.4c0,0.1-0.7,1.1-2,3.1s-2,3.3-2,4
				c0,0.1,0,0.1,0,0.2c0.1,0.5,0.3,0.7,0.7,0.7c1.1,0,3.1-1.8,6-5.5c0.1-0.1,0.1-0.1,0.2-0.1c0.1,0,0.1,0.1,0.1,0.2
				c0,0.2-0.1,0.4-0.3,0.6c-2.7,3.6-4.8,5.4-6.2,5.4c-0.2,0-0.4,0-0.5-0.1c-0.9-0.4-1.4-1.1-1.4-2.1c0-0.4,0-0.7,0.1-1.1l-2,1.9
				c-1.2,1.1-2.2,1.7-2.7,1.7c-0.6,0-1.1-0.2-1.6-0.5c-0.6-0.4-0.9-1-0.9-1.7c0-1.5,1.1-3.4,3.2-5.5c2.2-2.1,4.1-3.2,5.9-3.2
				c0.7,0,1.2,0.2,1.4,0.7c0.1,0.2,0.1,0.3,0.2,0.4C354.7,93.1,354.7,93.2,354.8,93.2z M345.3,101c0,0.8,0.3,1.1,0.8,1.1
				c1.2,0,2.9-1.3,5-4l3.4-4.6c-0.2-0.3-0.4-0.4-0.8-0.4c-1.3,0-3,1-5.1,3C346.3,98,345.3,99.7,345.3,101z"/>
			<path class="st1" d="M364.3,102.9c-1.6,0-2.4-0.9-2.4-2.6c0-0.9,0.2-1.9,0.7-2.9c0.5-1.1,1-1.9,1.5-2.7c-0.1,0-0.2,0-0.4,0
				c-0.5,0-0.9-0.4-1.3-1.1l-2.3,3c-1.3,1.6-2.1,2.4-2.3,2.4c-0.1,0-0.2,0-0.2-0.1c0-0.2,0.2-0.5,0.5-0.9c1.8-2.1,3.1-3.9,3.9-5.4
				c0.5-1.8,1.1-2.8,1.8-2.8c0.5,0,0.7,0.2,0.7,0.6c0,0.4-0.3,1-0.8,1.6l-0.8,1c0,0.4,0.3,0.7,1,0.7c0.4,0,0.8-0.1,1.3-0.4l0.8-0.5
				c0,0,0.1,0,0.3,0c0.2,0,0.3,0.1,0.5,0.3c0.2,0.2,0.3,0.4,0.2,0.6l-2.2,2.8c-1.4,1.7-2,3.1-2,4.1c0,1,0.5,1.5,1.4,1.5
				c1,0,2.2-0.5,3.6-1.6c0.8-0.6,1.6-1.3,2.3-2.1c0.7-0.8,1-1.1,1.1-1.1c0.1,0,0.2,0.1,0.2,0.2c0,0.2-0.1,0.3-0.3,0.6l-1,1.1
				c-0.6,0.6-1.2,1.2-1.9,1.7C366.7,102.2,365.3,102.9,364.3,102.9z"/>
			<path class="st1" d="M379.1,92.5l4.6-0.1c0.1,0,0.1,0.1,0.1,0.1c0,0.2-1.3,0.5-4,0.8c-2.6,0.3-4.1,0.5-4.3,0.6
				c-0.4,0.4-1.1,1.4-2.2,3.2c-1.1,1.8-1.6,3.1-1.6,3.9c0,0.8,0.5,1.2,1.6,1.2c0.5,0,1.2-0.2,2-0.5c0.8-0.3,1.5-0.6,1.9-0.9
				c1.2-0.7,2.5-1.8,3.8-3.3c0.3-0.3,0.5-0.4,0.6-0.4c0.1,0,0.1,0.1,0.1,0.2c0,0.1-0.2,0.4-0.5,0.8c-1.1,1.4-2.3,2.4-3.7,3.3
				c-1.7,1-3.2,1.5-4.7,1.5c-0.7,0-1.2-0.1-1.6-0.4c-0.4-0.3-0.6-0.9-0.6-1.7c0-0.9,0.4-2.1,1.1-3.6c0.8-1.5,1.3-2.6,1.7-3.4
				c-0.3,0.1-0.6,0.1-0.8,0.1c-0.6,0-0.9-0.2-0.9-0.7c0-0.4,0.3-0.6,0.8-0.8c0.1,0,0.2,0,0.3,0h1.8c0.4-0.5,0.8-1,1.3-1.7
				c0.6-0.8,1-1.1,1.2-1.1s0.5,0.1,0.8,0.3c0.3,0.2,0.5,0.4,0.5,0.6c0,0.2-0.5,0.9-1.5,2.1C377.5,92.5,378.2,92.5,379.1,92.5z"/>
			<path class="st1" d="M400.3,92.7c0-0.1,0.1-0.2,0.2-0.2c0.4,0,0.7,0.2,0.9,0.7c0.3,0.4,0.4,1.1,0.4,2.1c0,1.5-0.7,3.1-2,4.7
				c-1.3,1.6-2.8,2.4-4.3,2.4c-0.7,0-1.3-0.4-1.8-1.1c-0.5-0.7-0.7-1.5-0.7-2.2s0.2-1.7,0.5-2.8c-0.6,0.6-1.5,1.7-2.7,3.2
				c-1.2,1.5-2,2.6-2.4,3.3c-0.2,0-0.5-0.1-0.9-0.3c-0.4-0.2-0.6-0.5-0.6-0.7c0-0.5,0.6-2.2,1.9-5c1.3-2.8,2.3-4.3,2.9-4.3
				c0.2,0,0.4,0.1,0.6,0.3c0.2,0.2,0.3,0.4,0.3,0.5c0,0.1-0.6,1.2-1.7,3.3s-1.7,3.3-1.7,3.7c2-2.4,3.1-3.7,3.2-3.9
				c2.1-2.4,3.4-3.6,4-3.6c0.2,0,0.5,0.1,0.7,0.3c0.2,0.2,0.3,0.4,0.3,0.5c0,0.2-0.3,0.6-0.9,1.4c-0.6,0.8-1.1,1.6-1.5,2.3
				c-0.4,0.8-0.6,1.5-0.6,2.3c0,1.3,0.4,2,1.3,2h0.4c1.1,0,2.2-0.9,3.1-2.6c0.9-1.7,1.4-3.1,1.4-4.2c0-0.8-0.1-1.5-0.4-2
				C400.3,92.8,400.3,92.8,400.3,92.7z"/>
			<path class="st1" d="M412.9,93.2l0.4-0.1c0.2,0,0.5,0.1,0.7,0.3c0.2,0.2,0.3,0.3,0.3,0.4c0,0.1-0.7,1.1-2,3.1c-1.3,1.9-2,3.3-2,4
				c0,0.1,0,0.1,0,0.2c0.1,0.5,0.3,0.7,0.7,0.7c1.1,0,3.1-1.8,6-5.5c0.1-0.1,0.1-0.1,0.2-0.1c0.1,0,0.1,0.1,0.1,0.2
				c0,0.2-0.1,0.4-0.3,0.6c-2.7,3.6-4.8,5.4-6.2,5.4c-0.2,0-0.4,0-0.5-0.1c-0.9-0.4-1.4-1.1-1.4-2.1c0-0.4,0-0.7,0.1-1.1l-2,1.9
				c-1.2,1.1-2.2,1.7-2.7,1.7c-0.6,0-1.1-0.2-1.6-0.5c-0.6-0.4-0.9-1-0.9-1.7c0-1.5,1.1-3.4,3.2-5.5c2.2-2.1,4.1-3.2,5.9-3.2
				c0.7,0,1.2,0.2,1.4,0.7c0.1,0.2,0.1,0.3,0.2,0.4C412.8,93.1,412.8,93.2,412.9,93.2z M403.4,101c0,0.8,0.3,1.1,0.8,1.1
				c1.2,0,2.9-1.3,5-4l3.4-4.6c-0.2-0.3-0.4-0.4-0.8-0.4c-1.3,0-3,1-5.1,3C404.4,98,403.4,99.7,403.4,101z"/>
			<path class="st1" d="M414.1,106.4c1,1.3,1.9,1.9,2.6,1.9c1.2,0,2.5-1,3.9-2.9c1-1.4,2-3.2,3-5.4l1.2-2.9l-4.7,3.7
				c-1.4,1.1-2.6,1.7-3.5,1.7c-0.5,0-0.8-0.2-1.1-0.5c-0.3-0.3-0.4-0.7-0.4-1.1c0-0.9,0.8-2.4,2.3-4.5c1.6-2.1,2.7-3.1,3.4-3.1
				c0.7,0,1.1,0.2,1.1,0.7c0,0.2-0.9,1.3-2.8,3.3c-1.9,2-2.8,3.3-2.8,4c0,0.3,0.2,0.4,0.5,0.4c0.7,0,2-0.8,4.1-2.4
				c2-1.6,3.6-2.9,4.6-3.9c0.2-0.3,0.6-0.7,1-1.2c0.4-0.5,0.8-0.7,1.3-0.7c0.5,0,0.7,0.2,0.7,0.7c0,0.1-0.5,0.8-1.4,2.3
				c-1,1.4-1.5,2.2-1.5,2.3c-0.7,1.3-1.7,3.1-3,5.6c-2.1,3.3-4.1,5-6.2,5c-0.7,0-1.3-0.3-1.8-0.9
				C414.3,107.7,414.1,107.1,414.1,106.4z"/>
			<path class="st1" d="M432.7,100.9c0.3,0.2,0.4,0.4,0.4,0.7c0,0.3-0.1,0.5-0.4,0.7c-0.3,0.2-0.6,0.3-0.9,0.3s-0.6-0.1-0.9-0.3
				c-0.3-0.2-0.4-0.5-0.4-0.8c0-0.6,0.4-0.9,1.2-0.9C432.1,100.6,432.4,100.7,432.7,100.9z M432.5,99c-0.1,0-0.2-0.2-0.1-0.6
				c0.3-1.5,1.2-3.5,3-6c1.7-2.6,2.9-3.9,3.5-3.9c0.3,0,0.5,0,0.8,0.1c0.3,0.1,0.5,0.2,0.5,0.4c0,0.1,0,0.1-0.1,0.2
				c-0.9,0.9-2.2,2.5-3.9,4.8c-1.7,2.3-2.7,3.7-2.9,4.2C433,98.7,432.8,99,432.5,99z"/>
		</g>
		<g class="st0">
			<path class="st2" d="M200.1,33.6c-1.9-3.1-7-6-12.9-6c-7.6,0-11.2,3.2-11.2,7.2c0,4.7,5.6,6,12.1,6.8
				c11.3,1.4,21.8,4.3,21.8,17.3c0,12.1-10.7,17.3-22.8,17.3c-11.1,0-19.6-3.4-23.6-13.3l8.5-4.4c2.4,6,8.7,8.6,15.3,8.6
				c6.4,0,12.5-2.2,12.5-8.1c0-5.1-5.3-7.2-12.5-8c-11.1-1.3-21.3-4.3-21.3-16.4c0-11.1,11-15.7,21-15.8c8.4,0,17.2,2.4,21.3,10.8
				L200.1,33.6z"/>
			<path class="st2" d="M259.3,74.7h-40.6c0-18,0-36.2,0-54.2h40.6v9.9h-30.4v12.5h29.3v9.5h-29.3v12.2h30.4V74.7z"/>
			<path class="st2" d="M278.4,20.5v44.7h27.9v9.4h-38.1V20.5H278.4z"/>
			<path class="st2" d="M324.7,20.5v44.7h27.9v9.4h-38.1V20.5H324.7z"/>
			<path class="st2" d="M377.5,74.7V20.5h10.1v54.2H377.5z"/>
			<path class="st2" d="M414.7,29.8h-17.2v-9.3c15.6,0,28.9,0,44.6,0v9.3h-17.2v44.9h-10.2V29.8z"/>
		</g>
	</g>
	<g>
		<circle class="st3" cx="71.4" cy="63.9" r="62.5"/>
		<g>
			<g>
				<path class="st4" d="M104.5,88.3H73.2L57,66.2l-3.3-4.6L40.7,44.1c-1-1.4-1.8-2.9-2.4-4.6h32l15.9,22.1l3.3,4.5l12.7,17.6
					C103.1,85.2,103.9,86.7,104.5,88.3z"/>
			</g>
			
				<linearGradient id="SVGID_1_" gradientUnits="userSpaceOnUse" x1="71.6526" y1="99.2022" x2="71.1345" y2="27.1894" gradientTransform="matrix(1 0 0 -1 0 127.5243)">
				<stop  offset="6.145252e-02" style="stop-color:#000000"/>
				<stop  offset="6.301188e-02" style="stop-color:#0A0A0B;stop-opacity:0.9965"/>
				<stop  offset="9.776695e-02" style="stop-color:#494C56;stop-opacity:0.9182"/>
				<stop  offset="0.1341" style="stop-color:#565E72;stop-opacity:0.8364"/>
				<stop  offset="0.1728" style="stop-color:#596786;stop-opacity:0.7493"/>
				<stop  offset="0.2134" style="stop-color:#576C95;stop-opacity:0.6578"/>
				<stop  offset="0.2565" style="stop-color:#526FA0;stop-opacity:0.5608"/>
				<stop  offset="0.3029" style="stop-color:#4A6FA7;stop-opacity:0.4564"/>
				<stop  offset="0.3543" style="stop-color:#436FAC;stop-opacity:0.3406"/>
				<stop  offset="0.4146" style="stop-color:#3D6FAF;stop-opacity:0.2049"/>
				<stop  offset="0.5056" style="stop-color:#3B6FB0;stop-opacity:0"/>
				<stop  offset="0.6212" style="stop-color:#3D6FAF;stop-opacity:0.2684"/>
				<stop  offset="0.6785" style="stop-color:#426FAD;stop-opacity:0.4014"/>
				<stop  offset="0.7229" style="stop-color:#496FA8;stop-opacity:0.5047"/>
				<stop  offset="0.7608" style="stop-color:#506FA2;stop-opacity:0.5926"/>
				<stop  offset="0.7944" style="stop-color:#566D99;stop-opacity:0.6708"/>
				<stop  offset="0.8252" style="stop-color:#59698C;stop-opacity:0.7421"/>
				<stop  offset="0.8536" style="stop-color:#57627B;stop-opacity:0.8081"/>
				<stop  offset="0.8803" style="stop-color:#515665;stop-opacity:0.8701"/>
				<stop  offset="0.9046" style="stop-color:#3D3D44;stop-opacity:0.9265"/>
				<stop  offset="0.919" style="stop-color:#000000;stop-opacity:0.96"/>
			</linearGradient>
			<path class="st5" d="M104.5,88.3H73.2L57,66.2l-3.3-4.6L40.7,44.1c-1-1.4-1.9-2.9-2.4-4.6h32l15.9,22.1l3.3,4.5l12.7,17.6
				C103.2,85.2,103.9,86.7,104.5,88.3z"/>
			
				<radialGradient id="SVGID_2_" cx="22.0478" cy="25.5669" r="206.3502" gradientTransform="matrix(1 0 0 -1 0 127.5243)" gradientUnits="userSpaceOnUse">
				<stop  offset="0" style="stop-color:#55C6D8"/>
				<stop  offset="4.114398e-02" style="stop-color:#4EB5CD"/>
				<stop  offset="0.131" style="stop-color:#3F9ABB"/>
				<stop  offset="0.227" style="stop-color:#3285AD"/>
				<stop  offset="0.329" style="stop-color:#2875A3"/>
				<stop  offset="0.4389" style="stop-color:#206A9C"/>
				<stop  offset="0.5607" style="stop-color:#196297"/>
				<stop  offset="0.7034" style="stop-color:#155E94"/>
				<stop  offset="0.919" style="stop-color:#145C93"/>
			</radialGradient>
			<path class="st6" d="M104.5,88.3H53.7c-5.2,0-9.8,2.4-12.8,6.2c-2.2,2.8-3.6,6.3-3.6,10.2v5.7H89c4.8,0,9.1-2,12.1-5.3
				c2.7-2.9,4.4-6.9,4.4-11.1v-0.1C105.4,92,105.1,90.1,104.5,88.3z M71.4,104.3c-2.7,0-4.9-2.2-4.9-4.9c0-2.7,2.2-4.9,4.9-4.9
				s4.9,2.2,4.9,4.9C76.3,102.1,74.1,104.3,71.4,104.3z"/>
			
				<radialGradient id="SVGID_3_" cx="9.2196" cy="106.5675" r="247.4011" gradientTransform="matrix(1 0 0 -1 0 127.5243)" gradientUnits="userSpaceOnUse">
				<stop  offset="0" style="stop-color:#55C6D8"/>
				<stop  offset="4.114398e-02" style="stop-color:#4EB5CD"/>
				<stop  offset="0.131" style="stop-color:#3F9ABB"/>
				<stop  offset="0.227" style="stop-color:#3285AD"/>
				<stop  offset="0.329" style="stop-color:#2875A3"/>
				<stop  offset="0.4389" style="stop-color:#206A9C"/>
				<stop  offset="0.5607" style="stop-color:#196297"/>
				<stop  offset="0.7034" style="stop-color:#155E94"/>
				<stop  offset="0.919" style="stop-color:#145C93"/>
			</radialGradient>
			<path class="st7" d="M53.7,17.4c-4.5,0-8.6,1.8-11.6,4.8c-3,3-4.8,7.1-4.8,11.6c0,2,0.3,3.9,1,5.7H89c9.1,0,16.4-7.4,16.4-16.4
				v-5.7H53.7z M79.1,29.1H63.7c-0.4,0-0.7-0.3-0.7-0.7s0.3-0.7,0.7-0.7h15.4c0.4,0,0.7,0.3,0.7,0.7S79.4,29.1,79.1,29.1z"/>
		</g>
	</g>
</g>
</svg>
